<?xml version="1.0" encoding="utf-8"?>
<!-- Generator: Adobe Illustrator 24.1.1, SVG Export Plug-In . SVG Version: 6.00 Build 0)  -->
<svg version="1.1" id="Layer_1" xmlns="http://www.w3.org/2000/svg" xmlns:xlink="http://www.w3.org/1999/xlink" x="0px" y="0px"
	 viewBox="0 0 512 512" style="enable-background:new 0 0 512 512;" xml:space="preserve">
<g>
	<path d="M460.8,273.07v170.67H51.2l0-170.67c0-9.43-7.64-17.07-17.07-17.07c-9.43,0-17.07,7.64-17.07,17.07l0,187.73
		c0,4.49,1.82,8.89,5,12.07c3.18,3.18,7.57,5,12.07,5h443.73c4.49,0,8.89-1.82,12.07-5c3.18-3.18,5-7.57,5-12.07V273.07
		c0-9.43-7.64-17.07-17.07-17.07C468.44,256,460.8,263.64,460.8,273.07L460.8,273.07z M17.07,119.47v17.07h460.8l0,119.47h17.07
		l-9.47-14.2l-0.16,0.1c-4.65,3.18-102.62,65.48-229.31,65.3c-65.4,0.02-123.11-16.41-164.33-32.91
		c-20.6-8.24-37.08-16.48-48.3-22.6c-5.61-3.06-9.91-5.59-12.77-7.33l-3.17-1.97l-0.74-0.48l-0.16-0.1L17.07,256h17.07V119.47H17.07
		v17.07V119.47H0V256c0,5.71,2.85,11.03,7.6,14.2c1.48,0.83,106.11,70.93,248.4,71.13c142.29-0.21,246.92-70.3,248.4-71.13
		c4.75-3.17,7.6-8.49,7.6-14.2V119.47c0-4.49-1.82-8.89-5-12.07c-3.18-3.18-7.57-5-12.07-5H17.07c-4.49,0-8.89,1.82-12.07,5
		c-3.18,3.18-5,7.57-5,12.07H17.07z M273.07,358.4v-68.27c0-9.43-7.64-17.07-17.07-17.07c-9.43,0-17.07,7.64-17.07,17.07v68.27
		c0,9.43,7.64,17.07,17.07,17.07C265.43,375.47,273.07,367.83,273.07,358.4z M341.33,119.47c-0.09-1.42,0.11-20.58-10.33-41.77
		c-5.25-10.54-13.5-21.67-26.06-30.03c-12.52-8.4-29.06-13.58-48.93-13.53c-19.88-0.05-36.41,5.13-48.93,13.53
		c-18.91,12.66-27.81,31.04-32.08,45.3c-4.29,14.4-4.3,25.43-4.32,26.5c0,9.43,7.64,17.07,17.07,17.07
		c9.43,0,17.07-7.64,17.07-17.07h-4.91l4.91,0.08v-0.08h-4.91l4.91,0.08c-0.08-0.54,0.6-15.37,7.36-27.79
		c3.35-6.27,7.9-11.88,14.48-16.1c6.61-4.18,15.56-7.34,29.37-7.39c14.26,0.05,23.32,3.4,30,7.8c9.89,6.54,15.39,16.96,18.32,26.7
		c1.44,4.8,2.19,9.24,2.54,12.35c0.18,1.55,0.26,2.77,0.3,3.54l0.03,0.79l0,0.02c0,9.43,7.64,17.07,17.07,17.07
		C333.69,136.53,341.33,128.89,341.33,119.47L341.33,119.47z"/>
</g>
</svg>
